<svg id="Camada_1" data-name="Camada 1" xmlns="http://www.w3.org/2000/svg" viewBox="0 0 404 399"><defs><style>.cls-1{fill:#a7f9f5;}.cls-2{fill:#6343ff;}.cls-3,.cls-5{fill:#18276b;}.cls-3,.cls-42{opacity:0.35;}.cls-4{fill:#34b9b3;}.cls-5{opacity:0.2;}.cls-11,.cls-37,.cls-43,.cls-47,.cls-49,.cls-6{fill:#fff;}.cls-7{fill:#07b2ae;}.cls-8{fill:#190b3d;opacity:0.32;}.cls-9{fill:#8970ff;}.cls-10{fill:#ff5f9c;}.cls-11{opacity:0.33;}.cls-12{fill:#d3e7ff;}.cls-13{fill:#aecef5;}.cls-14{fill:#a8d0ff;}.cls-15{fill:#056385;}.cls-15,.cls-43{opacity:0.47;}.cls-16{fill:#edada1;}.cls-17{fill:#714ee3;}.cls-18{fill:#edd0b9;}.cls-19{fill:#ba5443;}.cls-19,.cls-48{opacity:0.22;}.cls-20{fill:#457de3;}.cls-21{fill:#b7a8ff;}.cls-21,.cls-32{opacity:0.42;}.cls-22{fill:#ed7d74;}.cls-23{fill:none;stroke:#000;stroke-miterlimit:10;}.cls-24{fill:#353c94;opacity:0.28;}.cls-25{fill:#6a119e;opacity:0.36;}.cls-26{fill:#ffdc7f;}.cls-27{fill:#fff3d7;}.cls-28{fill:#c1b5ff;}.cls-29{fill:#6a7b80;}.cls-30,.cls-46{fill:#284047;}.cls-31{fill:#53d9ff;}.cls-32{fill:#4a42a8;}.cls-33{fill:#2c5fb8;}.cls-34{fill:#e3fffb;opacity:0.67;}.cls-35{fill:#edae9c;}.cls-36{fill:#1879ba;opacity:0.29;}.cls-37{opacity:0.38;}.cls-38{fill:#deeeff;}.cls-39{fill:#1c1452;opacity:0.4;}.cls-40{fill:#b81a8e;}.cls-41{fill:#4986fd;}.cls-42{fill:#180b57;}.cls-44{fill:#90a7ad;}.cls-45{fill:#b5efff;}.cls-46{opacity:0.19;}.cls-47{opacity:0.27;}.cls-48{fill:#34144d;}.cls-49{opacity:0.39;}</style></defs><title>Prancheta 1</title><path class="cls-1" d="M403.51,126S345.37,17.18,247.07,22.74,175.84,56.9,108.85,91.54s-95.63,44.23-105,100.63S16.51,269.1,30.23,298.05s.9,86.74.9,86.74H400.7Z"/><path class="cls-2" d="M339.73,274.76V384.62c0,7.92-1.38,14.35-3.08,14.35H79.77c-1.71,0-3.08-6.43-3.08-14.35V274.76c0-7.93,1.37-14.36,3.08-14.36H336.65C338.35,260.4,339.73,266.83,339.73,274.76Z"/><path class="cls-3" d="M339.73,275.25V384.62c0,7.92-1.38,14.35-3.08,14.35H229.16s35.11-66.14,29.5-77.74S77.18,287.52,77.18,287.52,284.78,277.5,339.73,275.25Z"/><path class="cls-4" d="M375.68,246v36.69c0,2.65-1.75,4.8-3.92,4.8H44.66c-2.17,0-3.92-2.15-3.92-4.8V246c0-2.66,1.75-4.8,3.92-4.8h327.1C373.93,241.23,375.68,243.37,375.68,246Z"/><path class="cls-5" d="M375.68,269.83v12.89c0,2.65-1.75,4.8-3.92,4.8H44.66c-2.17,0-3.92-2.15-3.92-4.8V269.83Z"/><path class="cls-6" d="M248.81,300.11a40.61,40.61,0,1,1-40.6-40.6A40.61,40.61,0,0,1,248.81,300.11Z"/><path class="cls-7" d="M218.7,324.6a5.13,5.13,0,0,1-5.14,5.11l-10.88,0a5.13,5.13,0,0,1-5.11-5.14l.15-46a5.13,5.13,0,0,1,5.14-5.11l10.88,0a5.13,5.13,0,0,1,5.11,5.14Z"/><path class="cls-7" d="M185.19,312.08a5.13,5.13,0,0,1-5.11-5.14l0-10.89a5.12,5.12,0,0,1,5.14-5.1l46,.14a5.13,5.13,0,0,1,5.11,5.14l0,10.88a5.13,5.13,0,0,1-5.14,5.11Z"/><path class="cls-2" d="M346.94,142.87H315.83a3.6,3.6,0,0,0-3.6,3.6V166.1a3.6,3.6,0,0,0,3.6,3.59h31.11a3.59,3.59,0,0,0,3.59-3.59V146.47A3.6,3.6,0,0,0,346.94,142.87Zm-.79,19.73a2.57,2.57,0,0,1-2.77,2.32h-24a2.57,2.57,0,0,1-2.78-2.32V150a2.57,2.57,0,0,1,2.78-2.31h24a2.57,2.57,0,0,1,2.77,2.31Z"/><path class="cls-8" d="M348.57,151.64v9.52l-2.42.21V150a2.57,2.57,0,0,0-2.77-2.31h-24a2.57,2.57,0,0,0-2.78,2.31v11.66a7.48,7.48,0,0,1-2.47-1.25v-10.7c0-3.37,1.81-4.75,8.55-4.75h21.89C348.11,144.92,348.57,148,348.57,151.64Z"/><path class="cls-9" d="M294.18,156.67h73.39a3.6,3.6,0,0,1,3.6,3.6v78.42a3.6,3.6,0,0,1-3.6,3.6H294.18a3.59,3.59,0,0,1-3.59-3.59V160.26A3.6,3.6,0,0,1,294.18,156.67Z"/><path class="cls-8" d="M371.16,160.26v78.42a3.6,3.6,0,0,1-3.6,3.6H294.18a3.6,3.6,0,0,1-3.6-3.6V234a20.33,20.33,0,0,0,4,1.61c8,2.3,42.07-4.59,48.34-31.48s-5.06-47.49-5.06-47.49h29.71A3.6,3.6,0,0,1,371.16,160.26Z"/><path class="cls-2" d="M302.94,151.64h.67a3.59,3.59,0,0,1,3.59,3.59v5.32a3.6,3.6,0,0,1-3.6,3.6h-.67a3.59,3.59,0,0,1-3.59-3.59v-5.32A3.6,3.6,0,0,1,302.94,151.64Z"/><rect class="cls-2" x="357.75" y="151.64" width="7.86" height="12.51" rx="3.6"/><path class="cls-6" d="M359.36,199.47A28.49,28.49,0,1,1,330.87,171,28.49,28.49,0,0,1,359.36,199.47Z"/><path class="cls-10" d="M327.05,180.78h7.64a3.59,3.59,0,0,1,3.59,3.59v32.26a3.6,3.6,0,0,1-3.6,3.6h-7.64a3.59,3.59,0,0,1-3.59-3.59V184.37A3.59,3.59,0,0,1,327.05,180.78Z"/><rect class="cls-10" x="311.14" y="193.09" width="39.45" height="14.83" rx="3.6"/><path class="cls-11" d="M304.77,162.53a11.15,11.15,0,0,0-3.41.94,8.62,8.62,0,0,0-3,2.72,14,14,0,0,0-2.26,4.72,27.86,27.86,0,0,0-.41,9q.45,7.38.92,14.74c.14,2.37.38,5,2,6.67a5.29,5.29,0,0,0,7.61-.33,10.82,10.82,0,0,0,1.62-3.61q1-3.27,2.3-6.48a17.53,17.53,0,0,1,2.05-4c2.16-3,5.73-4.46,9-6.06s6.73-3.69,8-7.13a9.09,9.09,0,0,0-3.2-10c-3-2.29-5.84-1.83-9.3-1.64C312.69,162.2,308.79,161.9,304.77,162.53Z"/><path class="cls-12" d="M276.93,225.39c-.13,2.23.25,9.05-1.62,13,0,0,0,0,0,0a5.44,5.44,0,0,1-1.74,2.17c-3.83,2.61-15.77-2.6-15.77-2.6L256,232.43l-5-15.58-.37-1.15s-5.06-3.95-4.91-7.77c.08-2,1.51-9.12,3.26-16.15,1.55-6.16,3.34-12.3,4.7-14.94,2.91-5.67,8.73-9.8,8.73-9.8a30.66,30.66,0,0,1,4,8C267.59,179.14,277.08,222.63,276.93,225.39Z"/><path class="cls-13" d="M253.8,165.52a11.1,11.1,0,0,1,4,0l4.59,1.52s-8,14.55-9.19,23.58S248,243.92,248,244.38s-25.11,0-25.11,0V202.45s11-12,18.14-21.78A118.87,118.87,0,0,1,253.8,165.52Z"/><path class="cls-12" d="M227.77,207.93l-.46,38.29H198.36S187.18,211,186.88,189.86s0-22.82,0-22.82,22.2,27.41,27.26,31.7a80.43,80.43,0,0,0,8.14,5.84C225.33,206.53,227.77,207.93,227.77,207.93Z"/><path class="cls-14" d="M196.83,160.88a12.35,12.35,0,0,0-5.36-2.11c-3.52-.62-7.5,5.84-7.66,6.75s1.7,10.86,8.74,19.59,34.76,22.82,34.76,22.82-15.69-16.59-23.93-28.41S196.83,160.88,196.83,160.88Z"/><path class="cls-7" d="M248,161.83s-2.14,3.21-7,11.79c-2.58,4.57-7.68,12.64-11.87,19.16-3.67,5.71-6.66,10.26-6.66,10.26s-1.83-1.49-4.47-3.94c-.81-.75-1.68-1.57-2.61-2.48a83.65,83.65,0,0,1-12-14.42c-6.77-10.87-11.75-20.68-10.68-22,.53-.7,3.85-1.76,7-2.62s5.89-1.52,5.89-1.52,29.56.92,33.39,2.76A53.63,53.63,0,0,0,248,161.83Z"/><path class="cls-15" d="M248,161.83s-2.14,3.21-7,11.79c-2.58,4.57-7.68,12.64-11.87,19.16-3.67,5.71-6.66,10.26-6.66,10.26s-1.83-1.49-4.47-3.94a43.28,43.28,0,0,1-2.09-8.77,107.5,107.5,0,0,1-.52-12,13.64,13.64,0,0,0-3.34-5.59c-2.44-2.34-7.3-5.93-12.39-15.26,3-.84,5.89-1.52,5.89-1.52s29.56.92,33.39,2.76A53.63,53.63,0,0,0,248,161.83Z"/><path class="cls-16" d="M233.89,144.37c0,5.67.62,11.48.62,11.48s-4.9,10.11-12,9.65-11.26-10.56-11.26-10.56,1.22-7.2,1.38-10.57S233.89,144.37,233.89,144.37Z"/><path class="cls-7" d="M220.72,163.21A46.2,46.2,0,0,1,216,167.8c-1.37.92-2.29,3.37-4,2a32.27,32.27,0,0,1-3.57-4.39c-2.57-3.57-5.39-8.07-5-8.93.48-1.1,3.62-3.78,5.64-4.64a2.34,2.34,0,0,1,1.25-.26,54,54,0,0,1,5.05,6.53A17.65,17.65,0,0,0,220.72,163.21Z"/><path class="cls-15" d="M220.72,163.21A46.2,46.2,0,0,1,216,167.8c-1.37.92-2.29,3.37-4,2a32.27,32.27,0,0,1-3.57-4.39,6.06,6.06,0,0,0,4.3-3.57c1.81-4-.82-4.7-3.66-10a2.34,2.34,0,0,1,1.25-.26,54,54,0,0,1,5.05,6.53A17.65,17.65,0,0,0,220.72,163.21Z"/><path class="cls-7" d="M239,163.06a14.07,14.07,0,0,1-2.83,3.27,78.61,78.61,0,0,1-7.12,5.61,39.1,39.1,0,0,1-3.22-3.37,11.15,11.15,0,0,1-1.82-3.26h0a7,7,0,0,1-.47-2.87c.2-2,4.59-2.14,7.5-5.66s3.18-5.23,3.18-5.23,6.48,5.38,6.78,6.55S240.48,160,239,163.06Z"/><path class="cls-15" d="M239,163.06a14.07,14.07,0,0,1-2.83,3.27c0-2.12-.16-5.77-1.61-6.42-2.08-.91-4,2-10.55,5.41h0a7,7,0,0,1-.47-2.87c.2-2,4.59-2.14,7.5-5.66s3.18-5.23,3.18-5.23,6.48,5.38,6.78,6.55S240.48,160,239,163.06Z"/><path class="cls-17" d="M229.14,192.78c-3.67,5.71-6.66,10.26-6.66,10.26s-3.12-2.53-7.08-6.42c.21-3.21,1.34-18.67,3.94-22.24,2.92-4,3.53.78,3.53.78s5.53,13.16,6.21,16.23A5,5,0,0,1,229.14,192.78Z"/><path class="cls-17" d="M214.14,167.8c3.58-4.14,5.94-7.38,9.34-5.36s6.13,7.2,5.51,9.5-6.43,6.12-8.27,6.43-7.26-6.38-6.92-8.47Z"/><path class="cls-14" d="M245.79,161.24c3.73-.79,12,4.28,12,4.28s-5.06,13.62-15.63,23.11A139.44,139.44,0,0,1,221.43,204s11.7-16.47,17.52-27.34S245.79,161.24,245.79,161.24Z"/><path class="cls-12" d="M275.31,238.35s0,0,0,0c-.41,1-2.5,5.39-4.65,6.21s-51.31,0-51.31,0a22,22,0,0,1-2.1-4,34.33,34.33,0,0,1-1.84-6.14,29.76,29.76,0,0,1,0-11.94L251,216.85l6-.95a8.6,8.6,0,0,1,5.36-.93,7,7,0,0,1,1.86.89,48.47,48.47,0,0,1,6.41,5.39S275.64,237.15,275.31,238.35Z"/><path class="cls-18" d="M178.14,238.22c0,.79-.14,1.5-.48,1.72a.12.12,0,0,1-.06.05,4.73,4.73,0,0,1-.66.22c-.44.13-1.08.29-1.84.49H175c-2.39.6-6,1.42-9.1,2-1.4.27-2.69.49-3.71.63a4.77,4.77,0,0,1-2.18,0h0a4.21,4.21,0,0,1-.58-.66c-.54-.8-.57-1.83,2.21-2.45,3.65-.82,16.33-4.62,16.33-4.62h0c0,.08.09.64.14,1.33C178.14,237.37,178.15,237.8,178.14,238.22Z"/><path class="cls-18" d="M209,238.93s-7.36.85-8.54,1-3.08,3.11-4.49,3.42-4.39-.78-7.53-1.07c-2.34-.21-5,.52-6.8.62h0a3.46,3.46,0,0,1-1.55-.18,7,7,0,0,1-1.51-.94,11.89,11.89,0,0,1-1.62-1.54l0-.05a4,4,0,0,1-.85-1.38.72.72,0,0,1,0-.24,3.11,3.11,0,0,1,.25-1,3.92,3.92,0,0,1,1.7-1.85,7.88,7.88,0,0,1,2-.81c3.26-.9,13.82-4.8,14.15-4.67s4-.75,7.41-1.51l3.2-.7,2.15-.48s1.23,1.86,2.16,3.52a9.45,9.45,0,0,1,1,2.18C210.23,234.46,209,238.93,209,238.93Z"/><path class="cls-18" d="M181.64,242.86h0c-1.48.16-12.4,2.18-13,2.08s-5.79.44-6.24-.68h0a2.11,2.11,0,0,1-.16-.91,1,1,0,0,1,.14-.54c.27-.55,1-1,2.39-1.07,1.81-.12,7.81-2,11.32-3,.89-.25,1.62-.45,2.09-.56a2.18,2.18,0,0,1,.52-.08,16.11,16.11,0,0,1,2.49.37,3.21,3.21,0,0,1,.83.29h0c.23.12.39.25.43.41C182.65,240.06,183.11,242.67,181.64,242.86Z"/><path class="cls-19" d="M209,238.93s-7.36.85-8.54,1-3.08,3.11-4.49,3.42-4.39-.78-7.53-1.07c-2.34-.21-5,.52-6.8.62h0c-1.48.16-12.4,2.18-13,2.08s-5.79.44-6.24-.68h0c-1.27.06-2.25-.1-2.34-.88h0a4.21,4.21,0,0,1-.58-.66l.66,0c.71,0,1.46.06,2.25.06,1.14,0,2.35,0,3.57-.09a25.24,25.24,0,0,0,6.53-1.15c.87-.31,1.72-.59,2.57-.86h.09l1.8-.54.76-.22,3.49-.93.83-.21h0a72.08,72.08,0,0,0,8.24-2.56,26.51,26.51,0,0,1,10.4-1.76c.4-.08.57-1.81.88-5.82l3.2-.7a50.34,50.34,0,0,1,4.31,3,9.45,9.45,0,0,1,1,2.18C210.23,234.46,209,238.93,209,238.93Z"/><path class="cls-18" d="M181.15,238.51c0,.17,0,.34,0,.5a2.82,2.82,0,0,1-.86,2.05,5.27,5.27,0,0,1-1.73.69c-4.06,1.11-13.39,2.22-15,2.41-.42,0-.82.08-1.19.1-1.27.06-2.25-.1-2.34-.88a.71.71,0,0,1,0-.29,1.14,1.14,0,0,1,.07-.34c.29-1,1.42-1.13,5.43-2.24l10.75-3c.66-.18,1.28-.35,1.84-.52l2.69-.74A9.43,9.43,0,0,1,181.15,238.51Z"/><path class="cls-20" d="M204,223.25c-2.38,2.38,2.62,17.76,3.22,20.36s12.9,2.61,14.18,2.61,2-1.57,2-1.57a43.32,43.32,0,0,1-2.74-8.69c-2.29-10.72-.45-14.25-.45-14.25s-.31-1.22-1.08-1.53S205.26,222,204,223.25Z"/><path class="cls-18" d="M99.29,156.69A7.91,7.91,0,0,0,100,152c-.56-2.24-2.71-4.45-3.51-3.07s-.7,3.8-1.15,5.15-.11,3.32,1.12,4S99.29,156.69,99.29,156.69Z"/><path class="cls-18" d="M108.46,166.5s-7.71-.65-8.84-.82-5.05-3.16-5.84-4.59-.78-5.39-.73-8.15-.39-6.47,1.18-6,2.71,2.39,3.15,4.49.22,6,.62,6.69,3.42,1.68,4.94,2.69,4.38,1.75,5,2.36S108.46,166.5,108.46,166.5Z"/><path class="cls-19" d="M108.46,166.5s-7.71-.65-8.84-.82-5.05-3.16-5.84-4.59-.78-5.39-.73-8.15-.39-6.47,1.18-6,2.71,2.39,3.15,4.49.22,6,.62,6.69,3.42,1.68,4.94,2.69,4.38,1.75,5,2.36S108.46,166.5,108.46,166.5Z"/><path class="cls-18" d="M110.64,164.28a2.45,2.45,0,0,1-1.85,1.23,8.18,8.18,0,0,1-2,.16s-7.85-3-9.48-4.09-4.33-4.66-4.95-5.39-1.17-4.21-2.24-5.9,2.39-2.7,3.36-1.74c0,0,.1.1.14.16a30.32,30.32,0,0,1,2.51,3.54A31.4,31.4,0,0,1,99.51,155a16.77,16.77,0,0,0,3.82,3.1c1,.39,5.85.58,6.52,1.38A5.91,5.91,0,0,1,110.64,164.28Z"/><path class="cls-19" d="M108.79,165.51a8.18,8.18,0,0,1-2,.16s-7.85-3-9.48-4.09-4.33-4.66-4.95-5.39-1.17-4.21-2.24-5.9,2.39-2.7,3.36-1.74c0,0,.1.1.14.16a2.63,2.63,0,0,0-.14,2.84c1,1.49,2.81,6.06,6.62,7.8s7.88,3.8,7.88,3.8S109.07,164.5,108.79,165.51Z"/><path class="cls-18" d="M131.42,163.15c.56,2.69.47,4.24-1.89,3.54-1.71-.51-7.38-4.13-10.37-6.08-1.14-.73-1.89-1.23-1.89-1.23,1.61.18,5.43-2.36,5.9-2.84s.71-2.73,1-3.6a11.08,11.08,0,0,0,0-4.84c-.38-1.74,1.12-4.76,2.78-4.95a1.71,1.71,0,0,1,1.44.57,7.43,7.43,0,0,1,1.58,4.06,51.79,51.79,0,0,0,1.73,6.83C132.08,155.84,130.85,160.46,131.42,163.15Z"/><path class="cls-19" d="M127.07,151.55c1.35,6.38,1.53,7.29-1.77,8.21a20.35,20.35,0,0,1-6.14.85c-1.14-.73-1.89-1.23-1.89-1.23,1.61.18,5.43-2.36,5.9-2.84s.71-2.73,1-3.6a11.08,11.08,0,0,0,0-4.84c-.38-1.74,1.12-4.76,2.78-4.95a1.71,1.71,0,0,1,1.44.57C126.38,145.24,125.91,146.09,127.07,151.55Z"/><path class="cls-18" d="M139.7,175.77A22.28,22.28,0,0,1,134,182.6c-3.67,2.84-6.43,3-6.43,3s-5.67-12.1-7.81-14.7-8.12-3.68-9.5-3.83a10.64,10.64,0,0,1-5.2-2.69c-.93-1.15-7.2-3.26-7.2-3.26s-2.15-1.1-4-5.08c-.56-1.2-.53-2-.17-2.48.81-1.11,3.33-.53,4.3.67,1.38,1.7,3.53,4,4.75,4.53s6.74.81,9.8.81,12.87-.92,15.62,1.33c2,1.62,7,8.5,9.67,12.32C139,174.72,139.7,175.77,139.7,175.77Z"/><path class="cls-19" d="M139.7,175.77A22.28,22.28,0,0,1,134,182.6c-3.67,2.84-6.43,3-6.43,3s-5.67-12.1-7.81-14.7-8.12-3.68-9.5-3.83a10.64,10.64,0,0,1-5.2-2.69c-.93-1.15-7.2-3.26-7.2-3.26s-2.15-1.1-4-5.08c-.56-1.2-.53-2-.17-2.48.5.46,1.09,1.3,2.09,2.48,2.75,3.29,11.62,7.27,17.9,7.43s11.17,2.93,12.7,6.66,4.28,6.18,7.12,5l4.33-1.87C139,174.72,139.7,175.77,139.7,175.77Z"/><path class="cls-12" d="M194.07,190.41a7.91,7.91,0,0,1-.3,2.05c-1.55,4.52-2.6,10.11-5.13,14.17s-11.24,22.89-11.24,22.89l-10.59,3.83s-9-2.45-10.71-5S131.74,200,131.74,200s2.58-4.8,5.38-9h0c.4-.59.8-1.17,1.21-1.73a17.29,17.29,0,0,1,8.27-5.92l4.44,3.59,13.48,10.9s10.87-27.41,15.16-32.5,11.18-4.16,11.18-4.16S194.45,182.71,194.07,190.41Z"/><path class="cls-13" d="M194.07,190.41a7.91,7.91,0,0,1-.3,2.05c-1.55,4.52-2.6,10.11-5.13,14.17s-11.24,22.89-11.24,22.89l-10.59,3.83s-9-2.45-10.71-5S131.74,200,131.74,200s2.58-4.8,5.38-9h0c4.71-2.1,13.92-4.06,13.92-4.06s-4.87,8.18-4.43,10.3,17.46,15,17.46,15,3.06,2.15,4.57-1.37-1.78-9.74-1.95-10.06c.12.06,1.35.77,3.89,4.15a7.33,7.33,0,0,1,1.51,4.33c1.65-9,6.89-36,11.72-42.95,0,0,6.42,8.27,8.74,15.31A32.91,32.91,0,0,1,194.07,190.41Z"/><path class="cls-20" d="M122.25,187.09c4-1.38,15.31-12.39,17.15-13.62S152.49,183.6,152,185.42s-8.1,9.64-14.54,13.63-9.35.18-10.27-1.83S122.25,187.09,122.25,187.09Z"/><path class="cls-2" d="M272.52,83.57s-.49,3.22,0,13-5.67,24.51-5.67,24.51-6.9.31-10.72,2.14-40.37-1.84-58.29-3.21l-2.05-.16q-1.71-.12-3.15-.27s0,0,0,0c-1.67-.16-3.08-.35-4.27-.54h0c-8.42-1.38-6.18-3.32-6.18-3.32s-.08-.36-.21-1c-.85-4.21-4-20.54-3.35-28.24.72-8.89,5.25-10.11,5.25-10.11s-4.75.76-5.22-2.3,3.22-2.9,3.22-2.9S178,69.48,180,68a2.35,2.35,0,0,1,.69-.38,3.74,3.74,0,0,1,3,.57h0a7.13,7.13,0,0,1,1,.69,17.87,17.87,0,0,1-3.2-4.72c-.76-2.15-.45-5.05,3.83-4.59a3,3,0,0,1,1.54.61c2.71,2.06,2.6,8.42,2.6,8.42a32.86,32.86,0,0,1,10.57-11.77c4.23-2.92,12-3.57,19.94-2.82a64.15,64.15,0,0,1,17,3.87c10.71,4.28,20.21-6.74,32.71,3.37S272.52,83.57,272.52,83.57Z"/><path class="cls-21" d="M180.67,73.63c1.44,1.5,4,3.47,4.89,3.34-.88,1-3.6,5.52-2.78,14.78,1,11.56,4.23,19.94,1.78,22a4.36,4.36,0,0,1-2.64,1c-.85-4.21-4-20.54-3.35-28.24.72-8.89,5.25-10.11,5.25-10.11s-4.75.76-5.22-2.3,3.22-2.9,3.22-2.9S178,69.48,180,68a2.35,2.35,0,0,1,.69-.38c-.13,1.05,2.1,3.43,2.1,3.43S179.07,72,180.67,73.63Z"/><path class="cls-8" d="M272.52,83.57s-.49,3.22,0,13-5.67,24.51-5.67,24.51-6.9.31-10.72,2.14-40.37-1.84-58.29-3.21a33.06,33.06,0,0,0-5.2-.43s0,0,0,0h0c-2,.24-3.41,0-4.23-.54h0c-1-.75-1.16-2.12-.41-4a18.07,18.07,0,0,0,.5-12.7c-1.68-4.83.46-13.69,13.18-20.58s29.81,7.35,34,10.72,4.85,5.19,10.21,2,10.09,2.29,10.25-3.52-4.59-5.2-4.59-5.2,14.22-2,9.48-13.16-14.22-6.12-24.84-8C228.73,63.16,226,57,220,54a64.15,64.15,0,0,1,17,3.87c10.71,4.28,20.21-6.74,32.71,3.37S272.52,83.57,272.52,83.57Z"/><path class="cls-21" d="M186.25,71a16.07,16.07,0,0,0-2.54-2.85,7.13,7.13,0,0,1,1,.69,17.87,17.87,0,0,1-3.2-4.72c-.76-2.15-.45-5.05,3.83-4.59a3,3,0,0,1,1.54.61C184.83,62.89,186.25,71,186.25,71Z"/><path class="cls-21" d="M185.79,76.83a.31.31,0,0,1-.23.14C185.78,76.72,185.88,76.68,185.79,76.83Z"/><path class="cls-18" d="M269.42,126c-3.06,3.83-7.65-.15-7.65-.15s.46,4.9-5.21,12.1-11.33,9.8-38.44,9.8c-7.85,0-13.57-1.87-17.71-4.55a24.85,24.85,0,0,1-10.93-17.81,8.33,8.33,0,0,1-8,1.07c-4.28-1.83-5.35-6.74-2.59-11.18s7.5-1.68,7.5-1.68.61,2.75,2.91.61,2-4.9,2.14-14.09,9-12.41,19.15-13a16.76,16.76,0,0,1,7.07,1.25C225,91.18,231.6,98,237,100.57c7,3.37,9.8-1.07,12.25-1.69s10.26,2.92,8.88,8.27.31,9.81,2.15,9.5,4-4.14,8.27-2.14S272.49,122.16,269.42,126Z"/><path d="M201.58,120.56c0,1.74-1.06,3.15-2.37,3.15s-2.38-1.41-2.38-3.15,1.06-3.16,2.38-3.16S201.58,118.81,201.58,120.56Z"/><path d="M251.43,120.56c0,1.74-1.06,3.15-2.37,3.15s-2.38-1.41-2.38-3.15,1.07-3.16,2.38-3.16S251.43,118.81,251.43,120.56Z"/><path class="cls-22" d="M222.18,120.56h.62a3.6,3.6,0,0,1,3.6,3.6v4.22A3.59,3.59,0,0,1,222.8,132h-.62a3.59,3.59,0,0,1-3.59-3.59v-4.22A3.6,3.6,0,0,1,222.18,120.56Z"/><path class="cls-10" d="M209.24,131.89c0,2.32-3.05,4.21-6.82,4.21s-6.81-1.89-6.81-4.21,3-4.21,6.81-4.21S209.24,129.56,209.24,131.89Z"/><path class="cls-10" d="M250.6,131.89c0,2.32-3,4.21-6.81,4.21s-6.82-1.89-6.82-4.21,3.05-4.21,6.82-4.21S250.6,129.56,250.6,131.89Z"/><path class="cls-23" d="M214.14,132.42a12.81,12.81,0,0,0,4.58,3.53,22.31,22.31,0,0,0,8.59,1.22"/><path class="cls-23" d="M195.76,109.6c2-2.34,4.32-4,7.66-3.06"/><path class="cls-23" d="M250.13,109.6c1.9-.8,6.32,4.82,6.74,6.59"/><path class="cls-19" d="M269.42,126c-3.06,3.83-7.65-.15-7.65-.15s.46,4.9-5.21,12.1-11.33,9.8-38.44,9.8c-7.85,0-13.57-1.87-17.71-4.55q1.28.27,3,.81c7.49,2.45,31.68,4.13,37.63-4.74s8.4-29-7.35-36.23c-6.08-2.79-12.6-10.38-16-14.69C225,91.18,231.6,98,237,100.57c7,3.37,9.8-1.07,12.25-1.69s10.26,2.92,8.88,8.27.31,9.81,2.15,9.5,4-4.14,8.27-2.14S272.49,122.16,269.42,126Z"/><path class="cls-13" d="M276.93,225.39c-.13,2.23.25,9.05-1.62,13,0,0,0,0,0,0-.41,1-2.5,5.39-4.65,6.21s-51.31,0-51.31,0a22,22,0,0,1-2.1-4,12.19,12.19,0,0,0-.54-3.23c-1.69-4.75,1.88-12.4,1.88-12.4s1.44,7.16,4.88,8.42c2.67,1,23.42-.3,32.55-.92,2.63-.18,4.29-.31,4.29-.31s3.21-1.07,2.08-5.51-6.67-7.49-6.67-7.49,2.6-.16,6.67,2.76a11.59,11.59,0,0,1,4.33,7c-.35-2.12-1.22-7.2-2.47-13a145.77,145.77,0,0,0-3.78-14.33c-3.53-10.56-5.1-14-11.51-9.75,1.55-6.16,3.34-12.3,4.7-14.94,2.91-5.67,8.73-9.8,8.73-9.8a30.66,30.66,0,0,1,4,8C267.59,179.14,277.08,222.63,276.93,225.39Z"/><path class="cls-9" d="M89,203v8.24a3.59,3.59,0,0,1-3.59,3.6H80.9a3.62,3.62,0,0,1-3.53-2.92,3.82,3.82,0,0,1-.06-.68V203a3.39,3.39,0,0,1,.12-.91,3.61,3.61,0,0,1,3-2.66,3.25,3.25,0,0,1,.44,0h4.5A3.6,3.6,0,0,1,89,203Z"/><path class="cls-24" d="M89,203v8.24a3.62,3.62,0,0,1-.55,1.92c-2.21.26-6.23-.94-9.2-.94a4.83,4.83,0,0,1-1.87-.3,3.82,3.82,0,0,1-.06-.68v-1.69c1.52-.05,5.4-.32,6.41-1.63,1.26-1.64.69-4.89-2.29-4.89H77.31v0a3.39,3.39,0,0,1,.12-.91,13,13,0,0,1,3-2.66,3.25,3.25,0,0,1,.44,0h4.5A3.6,3.6,0,0,1,89,203Z"/><path class="cls-9" d="M127.07,214.34v32a3.58,3.58,0,0,1-1.58,3,3.68,3.68,0,0,1-2,.62H53.61a3.6,3.6,0,0,1-3.6-3.6V213.17a3.6,3.6,0,0,1,3.6-3.6H120.4Z"/><path class="cls-24" d="M127.07,214.34v28.74a55.23,55.23,0,0,1-1.58,6.22,3.66,3.66,0,0,1-1.68.6H96.11c6.69-1.23,12.16-4.7,12.16-9.66V219.91c0-9.31-19.73-10.34-19.73-10.34H120.4Z"/><path class="cls-10" d="M164.76,237.46v4c0,1.65-1.61,3-3.59,3h-.75c-2,0-3.59-1.33-3.59-3v-4a2.64,2.64,0,0,1,.62-1.68,3.42,3.42,0,0,1,1.15-.89,4.16,4.16,0,0,1,1.82-.41h.75C163.15,234.48,164.76,235.81,164.76,237.46Z"/><path class="cls-25" d="M164.76,237.46v4c0,1.65-1.61,3-3.59,3h-.75c-2,0-3.59-1.33-3.59-3v-4a2.64,2.64,0,0,1,.62-1.68l4.74,2.7a5.29,5.29,0,0,0-.34-1.82,2.66,2.66,0,0,0-3.25-1.77,4.16,4.16,0,0,1,1.82-.41h.75C163.15,234.48,164.76,235.81,164.76,237.46Z"/><path class="cls-10" d="M155.68,230.81v4c0,1.64-1.61,3-3.59,3h-.76c-2,0-3.59-1.34-3.59-3v-4a2.59,2.59,0,0,1,.42-1.41,2.24,2.24,0,0,1,.27-.34h0a3.8,3.8,0,0,1,2.89-1.22h.76C154.07,227.83,155.68,229.15,155.68,230.81Z"/><path class="cls-25" d="M148.43,229.05h0Z"/><path class="cls-25" d="M155.68,230.81v4c0,1.64-1.61,3-3.59,3h-.76c-2,0-3.59-1.34-3.59-3v-4a2.59,2.59,0,0,1,.42-1.41l5.4,3.09s.61-2.52-.95-3.43-4-.08-4.17,0a3.8,3.8,0,0,1,2.89-1.22h.76C154.07,227.83,155.68,229.15,155.68,230.81Z"/><path class="cls-10" d="M146.61,224.15v4c0,1.64-1.62,3-3.6,3h-.75c-2,0-3.6-1.34-3.6-3v-4a2.57,2.57,0,0,1,.36-1.3,3.19,3.19,0,0,1,1-1,4.1,4.1,0,0,1,2.22-.64H143C145,221.16,146.61,222.5,146.61,224.15Z"/><path class="cls-25" d="M146.61,224.15v4c0,1.64-1.62,3-3.6,3h-.75c-2,0-3.6-1.34-3.6-3v-4a2.57,2.57,0,0,1,.36-1.3l5.52,3.31a7.6,7.6,0,0,0-.44-2.65A3.73,3.73,0,0,0,140,221.8a4.1,4.1,0,0,1,2.22-.64H143C145,221.16,146.61,222.5,146.61,224.15Z"/><path class="cls-10" d="M137.52,217.5v4c0,1.65-1.61,3-3.6,3h-.74c-2,0-3.6-1.34-3.6-3v-4a2.4,2.4,0,0,1,.11-.71l.15-.38,0-.06a3.49,3.49,0,0,1,2.4-1.74,4.63,4.63,0,0,1,.92-.1h.74C135.91,214.51,137.52,215.85,137.52,217.5Z"/><path class="cls-25" d="M137.52,217.5v4c0,1.65-1.61,3-3.6,3h-.74c-2,0-3.6-1.34-3.6-3v-4a2.4,2.4,0,0,1,.11-.71l.15-.38,0-.06,4.57,2.69v-2.39c0-1.28-2-2-2.17-2a4.63,4.63,0,0,1,.92-.1h.74C135.91,214.51,137.52,215.85,137.52,217.5Z"/><path class="cls-2" d="M165.83,242.09v5.83s-31.45,1.46-42,2h-3.32c.46-4-.09-40.35-.09-40.35l6.67,4.77Z"/><path class="cls-9" d="M61.29,177.94h46a3.59,3.59,0,0,1,3.59,3.59v17.23a3.59,3.59,0,0,1-3.59,3.59h-46a3.6,3.6,0,0,1-3.6-3.6V181.54A3.6,3.6,0,0,1,61.29,177.94Z"/><path class="cls-24" d="M110.87,181.54v17.23a3.6,3.6,0,0,1-3.6,3.59H70.91c5.93-1,16.22-2.91,23-5.14,8.51-2.78,13-12.69,13.09-19.28h.25A3.6,3.6,0,0,1,110.87,181.54Z"/><path class="cls-26" d="M107.54,187.23v5.85c0,2.6-1.69,4.71-3.79,4.71H64.8a3.51,3.51,0,0,1-2.84-1.6,5.38,5.38,0,0,1-1-3.11v-5.85c0-2.6,1.7-4.71,3.79-4.71h39a3.22,3.22,0,0,1,1.92.65A5,5,0,0,1,107.54,187.23Z"/><path class="cls-27" d="M74.05,182.52,62,196.19a5.38,5.38,0,0,1-1-3.11v-3.17l6.61-7.39Z"/><polygon class="cls-27" points="90.17 182.52 78.52 197.79 69.89 197.79 82.73 182.52 90.17 182.52"/><path class="cls-27" d="M105.67,183.17l-7.19,14.62H90l9.13-15.27h4.66A3.22,3.22,0,0,1,105.67,183.17Z"/><path class="cls-28" d="M59.16,249.92H53.61a3.6,3.6,0,0,1-3.6-3.6V213.17a3.6,3.6,0,0,1,3.6-3.6h6.93s-4.7.49-4.7,4.27v30.43C55.84,249.23,59.16,249.92,59.16,249.92Z"/><path class="cls-28" d="M63.76,202.36H61.28a3.59,3.59,0,0,1-3.59-3.59V181.54a3.6,3.6,0,0,1,3.59-3.6h4.65s-5.85.33-5.85,4.58v16.89C60.08,201.1,63.76,202.36,63.76,202.36Z"/><path class="cls-29" d="M117.58,75.26a.48.48,0,0,1-.14.34l-.11.11L95.21,97.84a.49.49,0,0,1-.6.06l-.07-.06a.44.44,0,0,1-.14-.34.45.45,0,0,1,.14-.33l22.23-22.24a.48.48,0,0,1,.67,0A.47.47,0,0,1,117.58,75.26Z"/><path class="cls-30" d="M117.33,75.71,95.21,97.84a.49.49,0,0,1-.6.06l22-22A2.68,2.68,0,0,1,117.33,75.71Z"/><path class="cls-31" d="M173,22.51,152.69,42.82l-2.31,2.31L147.24,42l2.22-2.22,1.59-1.58h0l18.78-18.78,0,0Z"/><path class="cls-32" d="M173,22.51,152.69,42.82a2.85,2.85,0,0,1-.72-.4,9.53,9.53,0,0,1-2.51-2.64l1.59-1.58c1.22,1.22,2,1.34,3,.33l16.28-16.29c.86-.85,0-2.16-.52-2.83l0,0Z"/><path class="cls-31" d="M153,45.13l-29,29a4.07,4.07,0,0,1-3.76,1.1l-.63.62a2.21,2.21,0,0,1-3.13-3.13l.63-.63a3.56,3.56,0,0,1-.11-.86,4.09,4.09,0,0,1,1.2-2.9l29-29Z"/><path class="cls-32" d="M153,45.13l-29,29a4.07,4.07,0,0,1-3.76,1.1l-.63.62a2.22,2.22,0,0,1-3.13,0c2.25.06,3-2.73,3-2.73s1.45,1.45,3.77-.87L151.7,43.8Z"/><path class="cls-31" d="M156.88,46.9a1.49,1.49,0,0,1-2.09,0l-9.31-9.32a1.48,1.48,0,0,1,1.05-2.52.41.41,0,0,1,.15,0,1.39,1.39,0,0,1,.89.41l9.31,9.31a1.57,1.57,0,0,1,.2.25A1.48,1.48,0,0,1,156.88,46.9Z"/><path class="cls-31" d="M178.18,25.6a1.47,1.47,0,0,1-2.09,0l-9.32-9.32a1.46,1.46,0,0,1-.43-1.12,1.49,1.49,0,0,1,.43-1,1.5,1.5,0,0,1,2.1,0l9.31,9.32a.43.43,0,0,1,0,.07A1.45,1.45,0,0,1,178.18,25.6Z"/><path class="cls-33" d="M147.86,47.65a.46.46,0,0,1-.67,0l-2.47-2.47a.47.47,0,0,1,0-.66h0a.45.45,0,0,1,.66,0L147.86,47a.47.47,0,0,1,0,.66Z"/><path class="cls-33" d="M145.76,49.74a.45.45,0,0,1-.66,0l-2.47-2.47a.45.45,0,0,1,0-.66h0a.45.45,0,0,1,.66,0l2.47,2.47a.45.45,0,0,1,0,.66Z"/><path class="cls-33" d="M143.67,51.84a.47.47,0,0,1-.66,0l-2.47-2.48a.45.45,0,0,1,0-.66h0a.47.47,0,0,1,.66,0l2.47,2.47a.46.46,0,0,1,0,.67Z"/><path class="cls-33" d="M141.58,53.93a.47.47,0,0,1-.66,0l-2.47-2.47a.46.46,0,0,1,0-.67h0a.47.47,0,0,1,.66,0l2.47,2.47a.46.46,0,0,1,0,.67Z"/><path class="cls-33" d="M139.49,56a.47.47,0,0,1-.66,0l-2.47-2.47a.47.47,0,0,1,0-.67h0a.47.47,0,0,1,.66,0l2.47,2.47a.47.47,0,0,1,0,.67Z"/><path class="cls-33" d="M137.4,58.11a.47.47,0,0,1-.66,0l-2.47-2.47a.47.47,0,0,1,0-.67h0a.47.47,0,0,1,.66,0l2.47,2.47a.47.47,0,0,1,0,.67Z"/><path class="cls-33" d="M135.31,60.2a.47.47,0,0,1-.66,0l-2.48-2.47a.48.48,0,0,1,0-.67h0a.48.48,0,0,1,.67,0l2.47,2.47a.48.48,0,0,1,0,.67Z"/><path class="cls-33" d="M133.22,62.29a.46.46,0,0,1-.67,0l-2.47-2.47a.48.48,0,0,1,0-.67h0a.48.48,0,0,1,.67,0l2.47,2.48a.47.47,0,0,1,0,.66Z"/><path class="cls-33" d="M131.13,64.38a.47.47,0,0,1-.67,0L128,61.91a.48.48,0,0,1,0-.67h0a.48.48,0,0,1,.67,0l2.47,2.48a.47.47,0,0,1,0,.66Z"/><path class="cls-33" d="M129,66.47a.47.47,0,0,1-.67,0L125.9,64a.47.47,0,0,1,0-.66h0a.47.47,0,0,1,.67,0L129,65.81a.47.47,0,0,1,0,.66Z"/><path class="cls-33" d="M127,68.56a.47.47,0,0,1-.67,0l-2.47-2.47a.47.47,0,0,1,0-.66h0a.46.46,0,0,1,.67,0L127,67.9a.47.47,0,0,1,0,.66Z"/><path class="cls-33" d="M124.86,70.65a.46.46,0,0,1-.67,0l-2.47-2.47a.45.45,0,0,1,0-.66h0a.45.45,0,0,1,.66,0L124.86,70a.47.47,0,0,1,0,.66Z"/><path class="cls-34" d="M119.79,67.64s-2.61,2.2-1.66,3.15,3.13-1.57,3.13-1.57S148.79,43.51,149,42.52s-.7-3-2.74-1.33S119.79,67.64,119.79,67.64Z"/><path class="cls-32" d="M156.88,46.9a1.49,1.49,0,0,1-2.09,0l-9.31-9.32a1.48,1.48,0,0,1,1.05-2.52.41.41,0,0,1,.15,0c0,1.9,6.7,9.2,8.26,10.05a1.9,1.9,0,0,0,2.14-.08A1.48,1.48,0,0,1,156.88,46.9Z"/><path class="cls-32" d="M178.18,25.6a1.47,1.47,0,0,1-2.09,0l-9.32-9.32a1.46,1.46,0,0,1-.43-1.12L176.15,25c.73.72,1.85-.27,2.07-1.39A1.45,1.45,0,0,1,178.18,25.6Z"/><path class="cls-34" d="M152.17,38.1c.48.77,1.87-.22,4.05-2.4l13.24-13.24c1-1,.16-2.18-1.26-.77L153.09,36.81C152,37.91,151.86,37.61,152.17,38.1Z"/><path class="cls-31" d="M85.58,83.81V144a2.22,2.22,0,0,1-2.22,2.22H39.94A2.22,2.22,0,0,1,37.72,144V83.81a2.23,2.23,0,0,1,2.22-2.23H83.36A2.23,2.23,0,0,1,85.58,83.81Z"/><path class="cls-6" d="M82.87,113.34A21.22,21.22,0,1,1,61.65,92.12,21.23,21.23,0,0,1,82.87,113.34Z"/><path class="cls-18" d="M68.83,127.14c0,3.08-3.21,5.58-7.18,5.58h0c-4,0-7.18-2.5-7.18-5.58V99.53c0-3.08,3.22-5.58,7.18-5.58h0c4,0,7.18,2.5,7.18,5.58Z"/><path class="cls-35" d="M68.83,119.24a2.12,2.12,0,0,1-2.33,1.81H56.8a2.12,2.12,0,0,1-2.33-1.81v-10.9a2.12,2.12,0,0,1,2.33-1.81h9.7a2.12,2.12,0,0,1,2.33,1.81Z"/><path class="cls-36" d="M85.58,83.81V144a2.22,2.22,0,0,1-2.22,2.22H39.94A2.22,2.22,0,0,1,37.72,144v-.18c7.87,1,39.27,2,39.27-3.29V81.58h6.37A2.23,2.23,0,0,1,85.58,83.81Z"/><path class="cls-37" d="M38.9,142.34V90.94c0-5,2.6-8.11,6.12-8.11H77.91S52.36,86.56,48.08,94,38.9,142.34,38.9,142.34Z"/><path class="cls-38" d="M333.43,58.51v36.4A4.47,4.47,0,0,1,329,99.38H308.58a4.48,4.48,0,0,1-4.11-2.73h0a4.53,4.53,0,0,1-.35-1.73V58.51A4.47,4.47,0,0,1,308.58,54H329A4.46,4.46,0,0,1,333.43,58.51Z"/><path class="cls-39" d="M323.09,99.38H308.58a4.48,4.48,0,0,1-4.11-2.73c1.59,1.72,12,2.27,12-1.26v-36c0-3.73.15-4.77.85-5.37h8a2.81,2.81,0,0,1,1.47,2.09C327.07,59.1,325.05,91.13,323.09,99.38Z"/><rect class="cls-10" x="319.34" y="52.59" width="66" height="48.38" rx="4.47"/><path class="cls-40" d="M361.72,59.32a3.85,3.85,0,0,1-3.85,3.85H328.55a3.84,3.84,0,0,1-3.84-3.85h0a3.84,3.84,0,0,1,3.84-3.84h29.32a3.84,3.84,0,0,1,3.85,3.84Z"/><path class="cls-40" d="M379.66,96c0,1-.52,1.89-1.16,1.89H342.37c-.64,0-1.16-.85-1.16-1.89h0c0-1,.52-1.89,1.16-1.89H378.5c.64,0,1.16.85,1.16,1.89Z"/><path class="cls-38" d="M364.67,78.08a12.34,12.34,0,1,1-12.33-12.34A12.34,12.34,0,0,1,364.67,78.08Z"/><rect class="cls-41" x="342.81" y="73.4" width="18.97" height="9.28" rx="3.92" transform="translate(48 271.96) rotate(-45)"/><path class="cls-41" d="M359.52,77.38l-3.94,3.94L349,74.76,353,70.82a3.93,3.93,0,0,1,5.55,0l1,1A3.92,3.92,0,0,1,359.52,77.38Z"/><path class="cls-42" d="M385.34,57.06V96.51a4.46,4.46,0,0,1-4.47,4.46H323.81a4.45,4.45,0,0,1-4.47-4.46v-15a17.08,17.08,0,0,0,1.73,3.35c1.79,2.74,14,5.63,26.58,4.65a48.72,48.72,0,0,0,13.59-2.89,25.52,25.52,0,0,0,11.84-8.52c3.75-5.16,8.17-13.83,3.93-25.49h3.86A4.47,4.47,0,0,1,385.34,57.06Z"/><path class="cls-43" d="M352.52,68.74H326.71a4.89,4.89,0,0,1-4.88-4.88h0A4.89,4.89,0,0,1,326.71,59h25.81a4.9,4.9,0,0,1,4.88,4.88h0A4.9,4.9,0,0,1,352.52,68.74Z"/><path class="cls-43" d="M305.74,96h0a1,1,0,0,1-1-1V60a1,1,0,0,1,1-1h0a1,1,0,0,1,1,1V95A1,1,0,0,1,305.74,96Z"/><path class="cls-41" d="M314.53,61.81v8.8c0,1.33-1.4,2.41-3.13,2.41a4,4,0,0,1-1-.12,3.46,3.46,0,0,1-1.22-.59,2.15,2.15,0,0,1-.91-1.7v-8.8a2.42,2.42,0,0,1,1.7-2.14,3.86,3.86,0,0,1,1.42-.26,3.64,3.64,0,0,1,2.21.7A2.14,2.14,0,0,1,314.53,61.81Z"/><path class="cls-41" d="M314.53,82.79V91.6c0,1.33-1.4,2.41-3.13,2.41a4.59,4.59,0,0,1-1.06-.14,3.52,3.52,0,0,1-1.15-.56,2.2,2.2,0,0,1-.91-1.71V82.79a2.47,2.47,0,0,1,1.87-2.2,3.85,3.85,0,0,1,1.25-.2,3.64,3.64,0,0,1,2.21.7A2.15,2.15,0,0,1,314.53,82.79Z"/><path class="cls-43" d="M309.5,70.53h0A.49.49,0,0,1,309,70V62.28a.49.49,0,0,1,.49-.49h0a.49.49,0,0,1,.49.49V70A.49.49,0,0,1,309.5,70.53Z"/><path class="cls-43" d="M309.5,92.45h0A.49.49,0,0,1,309,92V83a.49.49,0,0,1,.49-.49h0A.49.49,0,0,1,310,83v9A.49.49,0,0,1,309.5,92.45Z"/><path class="cls-39" d="M314.53,61.81v8.8c0,1.33-1.4,2.41-3.13,2.41a4,4,0,0,1-1-.12c.87-1.24,1.67-2.39,1.67-6.74,0-4.51-.4-6.2-2.1-6.48h0a3.86,3.86,0,0,1,1.42-.26,3.64,3.64,0,0,1,2.21.7A2.14,2.14,0,0,1,314.53,61.81Z"/><path class="cls-39" d="M314.53,82.79V91.6c0,1.33-1.4,2.41-3.13,2.41a4.59,4.59,0,0,1-1.06-.14c.9-1.28,1.74-2.38,1.74-6.84s-.37-6.06-1.93-6.44a3.85,3.85,0,0,1,1.25-.2,3.64,3.64,0,0,1,2.21.7A2.15,2.15,0,0,1,314.53,82.79Z"/><path class="cls-6" d="M156.56,73.76v19a7.7,7.7,0,0,1-7.7,7.7H137a7.62,7.62,0,0,1-4.72-1.62,7.72,7.72,0,0,1-3-6.08v-19a7.58,7.58,0,0,1,.64-3.08,7.86,7.86,0,0,1,2.39-3.05,7.76,7.76,0,0,1,3.88-1.53h0a6.51,6.51,0,0,1,.77,0h11.86A7.7,7.7,0,0,1,156.56,73.76Z"/><path class="cls-44" d="M131.2,63.26v4.43c0,1.55,5.25,2.81,11.73,2.81s11.74-1.26,11.74-2.81V63.26Z"/><path class="cls-30" d="M154.67,63.26c0,1.55-5.25,2.8-11.74,2.8s-11.73-1.25-11.73-2.8,5.25-2.8,11.73-2.8S154.67,61.71,154.67,63.26Z"/><path class="cls-45" d="M152.38,62.9c0,1.09-4.23,2-9.45,2s-9.44-.88-9.44-2,4.23-2,9.44-2S152.38,61.82,152.38,62.9Z"/><rect class="cls-31" x="129.31" y="75.37" width="27.25" height="15.33"/><path class="cls-46" d="M156.56,73.76v19a7.7,7.7,0,0,1-7.7,7.7H137a7.62,7.62,0,0,1-4.72-1.62c3.7.16,11.55.5,14.35-3.27a11.27,11.27,0,0,0,1.69-4.89,38.92,38.92,0,0,0-1.07-15.33,6,6,0,0,0-.62-1.35c-1.77-2.55-16.44.31-16.68-3.34a7.86,7.86,0,0,1,2.39-3.05,20,20,0,0,1,3.88-1.53h0a6.51,6.51,0,0,1,.77,0h11.86A7.7,7.7,0,0,1,156.56,73.76Z"/><path class="cls-47" d="M132.06,95.82h0a2.11,2.11,0,0,1-2.11-2.1V75.82a2.11,2.11,0,0,1,2.11-2.1h0a2.11,2.11,0,0,1,2.1,2.1v17.9A2.11,2.11,0,0,1,132.06,95.82Z"/><path class="cls-31" d="M270.87,14.53a12.77,12.77,0,0,1-3.76,9.06l-10.29,10.3h0l-7.68,7.67a12.8,12.8,0,0,1-18.13,0A12.33,12.33,0,0,1,228.5,38h0A12.82,12.82,0,0,1,231,23.45L241.38,13.1,249,5.48a12.82,12.82,0,0,1,21.88,9Z"/><path class="cls-10" d="M270.87,14.53a12.77,12.77,0,0,1-3.76,9.06l-10.29,10.3c-2.58-4.65-2.93-8.13-4.48-11.5a16.62,16.62,0,0,0-3.5-5,15.27,15.27,0,0,0-7.46-4.31L249,5.48a12.82,12.82,0,0,1,21.88,9Z"/><path class="cls-48" d="M270.87,14.53a12.77,12.77,0,0,1-3.76,9.06l-10.29,10.3h0l-7.68,7.67a12.8,12.8,0,0,1-18.13,0A12.33,12.33,0,0,1,228.5,38c.25.24,4.35,3.91,7,1.24l16.81-16.82L254,20.74c9.86-9.87,8.11-18.36,5.36-18.95a12.81,12.81,0,0,1,11.51,12.74Z"/><path class="cls-49" d="M255.53,3.6c1.74,2.49-.61,7-5.28,12.09s-16.37,19-19.35,18.2-3-3.69,2.6-10.37S248.92,7.58,250.71,5.29,255.22,3.16,255.53,3.6Z"/></svg>